<svg xmlns="http://www.w3.org/2000/svg" viewBox="0 0 64 64">
  <defs>
    <linearGradient id="glass" x1="12" y1="8" x2="52" y2="58" gradientUnits="userSpaceOnUse">
      <stop stop-color="#ffffff" stop-opacity=".95"/>
      <stop offset=".28" stop-color="#bae6fd" stop-opacity=".82"/>
      <stop offset=".62" stop-color="#c4b5fd" stop-opacity=".72"/>
      <stop offset="1" stop-color="#f0abfc" stop-opacity=".9"/>
    </linearGradient>
    <linearGradient id="bg" x1="4" y1="4" x2="60" y2="60" gradientUnits="userSpaceOnUse">
      <stop stop-color="#67e8f9"/>
      <stop offset=".5" stop-color="#6366f1"/>
      <stop offset="1" stop-color="#c026d3"/>
    </linearGradient>
    <filter id="shadow" x="-30%" y="-30%" width="160%" height="160%"><feDropShadow dx="0" dy="3" stdDeviation="2.5" flood-color="#111827" flood-opacity=".35"/></filter>
  </defs>
  <rect x="3" y="3" width="58" height="58" rx="17" fill="url(#bg)"/>
  <rect x="4" y="4" width="56" height="28" rx="16" fill="#fff" opacity=".2"/>
  <path d="M39.5 16.2c1.7-2.1 2.9-5 2.6-7.8-2.6.1-5.7 1.8-7.5 3.9-1.6 1.8-3 4.7-2.6 7.4 2.9.2 5.8-1.5 7.5-3.5Z" fill="url(#glass)" stroke="#fff" stroke-opacity=".72" stroke-width="1.2" filter="url(#shadow)"/>
  <path d="M46.3 33.4c0-6.2 5.1-9.2 5.3-9.4-2.9-4.2-7.4-4.8-9-4.9-3.8-.4-7.4 2.2-9.3 2.2-1.9 0-4.8-2.1-7.9-2-4.1.1-7.9 2.4-10 6.1-4.3 7.5-1.1 18.6 3 24.7 2 3 4.4 6.3 7.6 6.1 3-.1 4.2-1.9 7.8-1.9 3.6 0 4.7 1.9 7.9 1.8 3.3-.1 5.4-3 7.4-6 2.3-3.5 3.2-6.9 3.2-7.1-.1 0-6-2.3-6-9.6Z" fill="url(#glass)" stroke="#fff" stroke-opacity=".72" stroke-width="1.2" filter="url(#shadow)"/>
  <path d="M23 25c5-4 12-3 16-1" fill="none" stroke="#fff" stroke-opacity=".7" stroke-width="2" stroke-linecap="round"/>
</svg>
